<?xml version="1.0" encoding="UTF-8" standalone="no"?>
<svg
   xmlns:dc="http://purl.org/dc/elements/1.1/"
   xmlns:cc="http://creativecommons.org/ns#"
   xmlns:rdf="http://www.w3.org/1999/02/22-rdf-syntax-ns#"
   xmlns:svg="http://www.w3.org/2000/svg"
   xmlns="http://www.w3.org/2000/svg"
   xmlns:sodipodi="http://sodipodi.sourceforge.net/DTD/sodipodi-0.dtd"
   xmlns:inkscape="http://www.inkscape.org/namespaces/inkscape"
   version="1.1"
   x="0px"
   y="0px"
   viewBox="0 0 62 62"
   xml:space="preserve"
   id="svg36"
   sodipodi:docname="noun_1328413_cc.svg"
   width="62"
   height="62"
   inkscape:version="0.92.2 5c3e80d, 2017-08-06"><metadata
     id="metadata42"><rdf:RDF><cc:Work
         rdf:about=""><dc:format>image/svg+xml</dc:format><dc:type
           rdf:resource="http://purl.org/dc/dcmitype/StillImage" /><dc:title></dc:title></cc:Work></rdf:RDF></metadata><defs
     id="defs40" /><sodipodi:namedview
     pagecolor="#ffffff"
     bordercolor="#666666"
     borderopacity="1"
     objecttolerance="10"
     gridtolerance="10"
     guidetolerance="10"
     inkscape:pageopacity="0"
     inkscape:pageshadow="2"
     inkscape:window-width="640"
     inkscape:window-height="480"
     id="namedview38"
     showgrid="false"
     inkscape:zoom="3.6307692"
     inkscape:cx="26"
     inkscape:cy="32.5"
     inkscape:window-x="0"
     inkscape:window-y="0"
     inkscape:window-maximized="0"
     inkscape:current-layer="svg36" /><style
     type="text/css"
     id="style2">
	.st0{fill:none;}
	.st1{fill:none;stroke:#000000;stroke-linecap:round;stroke-linejoin:round;stroke-miterlimit:10;}
	.st2{fill:#D4C8BC;}
</style><g
     id="g30"
     transform="translate(5.2330508,5.8135593)"><g
       id="g10"><g
         id="g8"><g
           id="g6"><path
             d="M 7.1157227,50.5 C 6.9887696,50.5 6.862793,50.451172 6.7670899,50.358887 6.621582,50.216797 6.5756836,50 6.652832,49.811523 L 10.83252,39.548828 C 6.4565429,35.398926 3.9545898,29.586914 3.9545898,23.54541 3.9545898,11.389648 13.844238,1.5 25.999512,1.5 c 12.15625,0 22.045898,9.889648 22.045898,22.04541 0,12.155762 -9.889648,22.04541 -22.045898,22.04541 -2.0215,0 -4.000977,-0.268554 -5.885743,-0.798339 L 7.3178711,50.457031 C 7.253418,50.48584 7.184082,50.5 7.1157227,50.5 Z M 25.999512,2.5 C 14.39502,2.5 4.9545898,11.940918 4.9545898,23.54541 c 0,5.878418 2.4814453,11.529297 6.8085942,15.504883 0.154297,0.141113 0.204101,0.363281 0.125,0.556641 l -3.8417973,9.43457 11.8281253,-5.236817 c 0.105468,-0.04883 0.227539,-0.05566 0.341797,-0.02295 1.846679,0.536621 3.792968,0.809082 5.783203,0.809082 11.604492,0 21.045898,-9.440918 21.045898,-21.04541 C 47.04541,11.940918 37.604004,2.5 25.999512,2.5 Z"
             id="path4"
             inkscape:connector-curvature="0" /></g></g></g><g
       id="g28"><g
         id="g18"><g
           id="g16"><g
             id="g14"><path
               d="m 26.000488,36.572266 c -0.129883,0 -0.259765,-0.06006 -0.350586,-0.149903 -0.09961,-0.100097 -0.149414,-0.22998 -0.149414,-0.360351 0,-0.129883 0.0498,-0.259766 0.149414,-0.34961 0.180665,-0.190429 0.520508,-0.180176 0.700196,0 0.100586,0.08984 0.15039,0.219727 0.15039,0.34961 0,0.130371 -0.0498,0.260254 -0.15039,0.360351 -0.08984,0.08984 -0.219727,0.149903 -0.34961,0.149903 z"
               id="path12"
               inkscape:connector-curvature="0" /></g></g></g><g
         id="g26"><g
           id="g24"><g
             id="g22"><path
               d="m 26.000488,32.54541 c -0.276367,0 -0.5,-0.223633 -0.5,-0.5 v -2.455078 c 0,-2.933106 1.457032,-5.727051 3.896485,-7.473145 1.914062,-1.369628 2.799804,-3.674804 2.313476,-6.015136 -0.458984,-2.201172 -2.24707,-3.987793 -4.447265,-4.446777 -1.772461,-0.368653 -3.573243,0.05908 -4.944336,1.174804 -1.372071,1.115723 -2.15918,2.768555 -2.15918,4.534668 0,0.276367 -0.223633,0.5 -0.5,0.5 -0.276367,0 -0.5,-0.223633 -0.5,-0.5 0,-2.068847 0.921875,-4.004394 2.52832,-5.310547 1.605469,-1.305664 3.710938,-1.810058 5.778321,-1.377441 2.584961,0.538086 4.683594,2.636719 5.222656,5.221191 0.569336,2.733887 -0.469727,5.428711 -2.709961,7.032715 -2.177734,1.558594 -3.478515,4.04834 -3.478515,6.659668 v 2.455078 c -1e-6,0.276367 -0.223634,0.5 -0.500001,0.5 z"
               id="path20"
               inkscape:connector-curvature="0" /></g></g></g></g></g></svg>