<svg width="62.00000000000001" height="62.00000000000001" xmlns="http://www.w3.org/2000/svg">
 <metadata id="metadata42">image/svg+xml</metadata>

 <style type="text/css">.st0{fill:none;}
	.st1{fill:none;stroke:#000000;stroke-linecap:round;stroke-linejoin:round;stroke-miterlimit:10;}
	.st2{fill:#D4C8BC;}</style>
 <g>
  <title>background</title>
  <rect fill="none" id="canvas_background" height="402" width="582" y="-1" x="-1"/>
 </g>
 <g>
  <title>Layer 1</title>
  <g id="g30">
   <g id="g10">
    <g id="g8">
     <g id="g6">
      <path stroke="#ffffff" fill="#999999" id="path4" d="m12.348771,56.31356c-0.12695,0 -0.25293,-0.04883 -0.34863,-0.14111c-0.14551,-0.14209 -0.19141,-0.35889 -0.11426,-0.54737l4.17969,-10.26269c-4.37598,-4.1499 -6.87793,-9.96192 -6.87793,-16.00342c0,-12.15576 9.88965,-22.04541 22.04492,-22.04541c12.15625,0 22.0459,9.88965 22.0459,22.04541c0,12.15576 -9.88965,22.04541 -22.0459,22.04541c-2.0215,0 -4.00097,-0.26855 -5.88574,-0.79834l-12.7959,5.66455c-0.06445,0.02881 -0.13379,0.04297 -0.20215,0.04297zm18.88379,-48c-11.60449,0 -21.04492,9.44092 -21.04492,21.04541c0,5.87842 2.48145,11.5293 6.80859,15.50488c0.1543,0.14112 0.20411,0.36328 0.125,0.55664l-3.84179,9.43457l11.82812,-5.23681c0.10547,-0.04883 0.22754,-0.05566 0.3418,-0.02295c1.84668,0.53662 3.79297,0.80908 5.7832,0.80908c11.60449,0 21.0459,-9.44092 21.0459,-21.04541c0,-11.60449 -9.44141,-21.04541 -21.0459,-21.04541z"/>
     </g>
    </g>
   </g>
   <g id="g28">
    <g id="g18">
     <g id="g16">
      <g id="g14">
       <path stroke="#ffffff" fill="#999999" id="path12" d="m31.233541,42.38583c-0.12988,0 -0.25977,-0.06006 -0.35059,-0.14991c-0.09961,-0.10009 -0.14941,-0.22998 -0.14941,-0.36035c0,-0.12988 0.0498,-0.25976 0.14941,-0.34961c0.18067,-0.19043 0.52051,-0.18017 0.7002,0c0.10058,0.08984 0.15039,0.21973 0.15039,0.34961c0,0.13037 -0.0498,0.26026 -0.15039,0.36035c-0.08984,0.08984 -0.21973,0.14991 -0.34961,0.14991z"/>
      </g>
     </g>
    </g>
    <g id="g26">
     <g id="g24">
      <g id="g22">
       <path stroke="#ffffff" fill="#999999" id="path20" d="m31.233541,38.35897c-0.27637,0 -0.5,-0.22363 -0.5,-0.5l0,-2.45508c0,-2.9331 1.45703,-5.72705 3.89648,-7.47314c1.91407,-1.36963 2.79981,-3.67481 2.31348,-6.01514c-0.45898,-2.20117 -2.24707,-3.98779 -4.44727,-4.44678c-1.77246,-0.36865 -3.57324,0.05908 -4.94433,1.17481c-1.37207,1.11572 -2.15918,2.76855 -2.15918,4.53467c0,0.27636 -0.22363,0.5 -0.5,0.5c-0.27637,0 -0.5,-0.22364 -0.5,-0.5c0,-2.06885 0.92187,-4.0044 2.52832,-5.31055c1.60547,-1.30567 3.71094,-1.81006 5.77832,-1.37744c2.58496,0.53808 4.68359,2.63672 5.22266,5.22119c0.56933,2.73389 -0.46973,5.42871 -2.70997,7.03271c-2.17773,1.5586 -3.47851,4.04834 -3.47851,6.65967l0,2.45508c0,0.27637 -0.22363,0.5 -0.5,0.5z"/>
      </g>
     </g>
    </g>
   </g>
  </g>
 </g>
</svg>